# xmcd
#
# Track frame offsets:
#	183
#	16223
#	26055
#	32540
#	47120
#	62763
#	78718
#	87653
#	100055
#	112738
#	125913
#	135570
#	149793
#	166430
#
# Disc length: 2404 seconds
#
# Revision: 0
# Processed by: cddbd v1.4PL0 Copyright (c) Steve Scherf et al.
# Submitted via: OrangeCD 4.1
#
DISCID=c409620e
DTITLE=Various Artist - Classic Country Volume One
DYEAR=1900
DGENRE=
TTITLE0=Heartbreaker (Dolly Parton)
TTITLE1=Theme from the dukes of hazzard (Waylon Jennings)
TTITLE2=The bargain store (Dolly Parton)
TTITLE3=Shadows of my mind (Leon Everette)
TTITLE4=Delta Dawn (Dottie West)
TTITLE5=You made a believer out of me (Bobby Bare)
TTITLE6=Foggy mountain breakdown (Tom T. Hall)
TTITLE7=Touch your woman (Dolly Parton)
TTITLE8=We had it all (Waylon Jennings)
TTITLE9=The shelter of your eyes (Bobby and Jean Bare)
TTITLE10=I know one (Jim Reeves)
TTITLE11=If you can touch her at all (Willie Nelson)
TTITLE12=The devil went down to Georgia (Jerry Reed)
TTITLE13=Tennesse river (Alabama)
EXTD=
EXTT0=
EXTT1=
EXTT2=
EXTT3=
EXTT4=
EXTT5=
EXTT6=
EXTT7=
EXTT8=
EXTT9=
EXTT10=
EXTT11=
EXTT12=
EXTT13=
PLAYORDER=
